<?xml version="1.0" encoding="utf-8"?>
<!-- Generator: Adobe Illustrator 27.5.0, SVG Export Plug-In . SVG Version: 6.00 Build 0)  -->
<svg version="1.1" id="background" xmlns="http://www.w3.org/2000/svg" xmlns:xlink="http://www.w3.org/1999/xlink" x="0px" y="0px"
	 viewBox="0 0 2200 1466" style="enable-background:new 0 0 2200 1466;" xml:space="preserve">
<g>
	<rect y="0" style="fill:#FFFFFF;" width="2200" height="1466"/>
	<g>
		<g>
			<path d="M132.691,73.938L109.68,50.928c-4.649-4.636-12.167-4.636-16.816,0L69.854,73.938c-4.636,4.649-4.636,12.167,0,16.816
				l23.011,23.011c4.649,4.636,12.167,4.636,16.816,0l23.011-23.011C137.327,86.105,137.327,78.588,132.691,73.938z"/>
			<path d="M132.691,334.2l-23.011-23.011c-4.649-4.636-12.167-4.636-16.816,0L69.854,334.2c-4.636,4.649-4.636,12.167,0,16.816
				l23.011,23.011c4.649,4.636,12.167,4.636,16.816,0l23.011-23.011C137.327,346.367,137.327,338.849,132.691,334.2z"/>
			<path d="M132.691,594.461l-23.011-23.011c-4.649-4.636-12.167-4.636-16.816,0l-23.011,23.011c-4.636,4.649-4.636,12.167,0,16.816
				l23.011,23.011c4.649,4.636,12.167,4.636,16.816,0l23.011-23.011C137.327,606.628,137.327,599.111,132.691,594.461z"/>
			<path d="M132.691,854.723l-23.011-23.011c-4.649-4.636-12.167-4.636-16.816,0l-23.011,23.011c-4.636,4.649-4.636,12.167,0,16.816
				l23.011,23.011c4.649,4.636,12.167,4.636,16.816,0l23.011-23.011C137.327,866.889,137.327,859.372,132.691,854.723z"/>
			<path d="M132.691,1114.984l-23.011-23.011c-4.649-4.636-12.167-4.636-16.816,0l-23.011,23.011
				c-4.636,4.649-4.636,12.167,0,16.816l23.011,23.011c4.649,4.636,12.167,4.636,16.816,0l23.011-23.011
				C137.327,1127.151,137.327,1119.633,132.691,1114.984z"/>
			<path d="M132.691,1375.246l-23.011-23.011c-4.649-4.636-12.167-4.636-16.816,0l-23.011,23.011
				c-4.636,4.649-4.636,12.167,0,16.816l23.011,23.011c4.649,4.636,12.167,4.636,16.816,0l23.011-23.011
				C137.327,1387.412,137.327,1379.895,132.691,1375.246z"/>
		</g>
		<g>
			<path d="M332.437,204.069l-23.011-23.011c-4.649-4.636-12.167-4.636-16.816,0l-23.011,23.011c-4.636,4.649-4.636,12.167,0,16.816
				l23.011,23.011c4.649,4.636,12.167,4.636,16.816,0l23.011-23.011C337.073,216.236,337.073,208.718,332.437,204.069z"/>
			<path d="M332.437,464.331l-23.011-23.011c-4.649-4.636-12.167-4.636-16.816,0l-23.011,23.011c-4.636,4.649-4.636,12.167,0,16.816
				l23.011,23.011c4.649,4.636,12.167,4.636,16.816,0l23.011-23.011C337.073,476.497,337.073,468.98,332.437,464.331z"/>
			<path d="M332.437,724.592l-23.011-23.011c-4.649-4.636-12.167-4.636-16.816,0l-23.011,23.011c-4.636,4.649-4.636,12.167,0,16.816
				l23.011,23.011c4.649,4.636,12.167,4.636,16.816,0l23.011-23.011C337.073,736.759,337.073,729.241,332.437,724.592z"/>
			<path d="M332.437,984.853l-23.011-23.011c-4.649-4.636-12.167-4.636-16.816,0l-23.011,23.011c-4.636,4.649-4.636,12.167,0,16.816
				l23.011,23.011c4.649,4.636,12.167,4.636,16.816,0l23.011-23.011C337.073,997.02,337.073,989.503,332.437,984.853z"/>
			<path d="M332.437,1245.115l-23.011-23.011c-4.649-4.636-12.167-4.636-16.816,0l-23.011,23.011
				c-4.636,4.649-4.636,12.167,0,16.816l23.011,23.011c4.649,4.636,12.167,4.636,16.816,0l23.011-23.011
				C337.073,1257.282,337.073,1249.764,332.437,1245.115z"/>
		</g>
		<g>
			<path d="M532.182,73.938l-23.011-23.011c-4.649-4.636-12.167-4.636-16.816,0l-23.011,23.011c-4.636,4.649-4.636,12.167,0,16.816
				l23.011,23.011c4.649,4.636,12.167,4.636,16.816,0l23.011-23.011C536.818,86.105,536.818,78.588,532.182,73.938z"/>
			<path d="M532.182,334.2l-23.011-23.011c-4.649-4.636-12.167-4.636-16.816,0L469.345,334.2c-4.636,4.649-4.636,12.167,0,16.816
				l23.011,23.011c4.649,4.636,12.167,4.636,16.816,0l23.011-23.011C536.818,346.367,536.818,338.849,532.182,334.2z"/>
			<path d="M532.182,594.461l-23.011-23.011c-4.649-4.636-12.167-4.636-16.816,0l-23.011,23.011c-4.636,4.649-4.636,12.167,0,16.816
				l23.011,23.011c4.649,4.636,12.167,4.636,16.816,0l23.011-23.011C536.818,606.628,536.818,599.111,532.182,594.461z"/>
			<path d="M532.182,854.723l-23.011-23.011c-4.649-4.636-12.167-4.636-16.816,0l-23.011,23.011c-4.636,4.649-4.636,12.167,0,16.816
				l23.011,23.011c4.649,4.636,12.167,4.636,16.816,0l23.011-23.011C536.818,866.889,536.818,859.372,532.182,854.723z"/>
			<path d="M532.182,1114.984l-23.011-23.011c-4.649-4.636-12.167-4.636-16.816,0l-23.011,23.011
				c-4.636,4.649-4.636,12.167,0,16.816l23.011,23.011c4.649,4.636,12.167,4.636,16.816,0l23.011-23.011
				C536.818,1127.151,536.818,1119.633,532.182,1114.984z"/>
			<path d="M532.182,1375.246l-23.011-23.011c-4.649-4.636-12.167-4.636-16.816,0l-23.011,23.011
				c-4.636,4.649-4.636,12.167,0,16.816l23.011,23.011c4.649,4.636,12.167,4.636,16.816,0l23.011-23.011
				C536.818,1387.412,536.818,1379.895,532.182,1375.246z"/>
		</g>
		<g>
			<path d="M731.928,204.069l-23.011-23.011c-4.649-4.636-12.167-4.636-16.816,0l-23.011,23.011c-4.636,4.649-4.636,12.167,0,16.816
				l23.011,23.011c4.649,4.636,12.167,4.636,16.816,0l23.011-23.011C736.564,216.236,736.564,208.718,731.928,204.069z"/>
			<path d="M731.928,464.331l-23.011-23.011c-4.649-4.636-12.167-4.636-16.816,0l-23.011,23.011c-4.636,4.649-4.636,12.167,0,16.816
				l23.011,23.011c4.649,4.636,12.167,4.636,16.816,0l23.011-23.011C736.564,476.497,736.564,468.98,731.928,464.331z"/>
			<path d="M731.928,724.592l-23.011-23.011c-4.649-4.636-12.167-4.636-16.816,0l-23.011,23.011c-4.636,4.649-4.636,12.167,0,16.816
				l23.011,23.011c4.649,4.636,12.167,4.636,16.816,0l23.011-23.011C736.564,736.759,736.564,729.241,731.928,724.592z"/>
			<path d="M731.928,984.853l-23.011-23.011c-4.649-4.636-12.167-4.636-16.816,0l-23.011,23.011c-4.636,4.649-4.636,12.167,0,16.816
				l23.011,23.011c4.649,4.636,12.167,4.636,16.816,0l23.011-23.011C736.564,997.02,736.564,989.503,731.928,984.853z"/>
			<path d="M731.928,1245.115l-23.011-23.011c-4.649-4.636-12.167-4.636-16.816,0l-23.011,23.011
				c-4.636,4.649-4.636,12.167,0,16.816l23.011,23.011c4.649,4.636,12.167,4.636,16.816,0l23.011-23.011
				C736.564,1257.282,736.564,1249.764,731.928,1245.115z"/>
		</g>
		<g>
			<path d="M931.673,73.938l-23.011-23.011c-4.649-4.636-12.167-4.636-16.816,0l-23.011,23.011c-4.636,4.649-4.636,12.167,0,16.816
				l23.011,23.011c4.649,4.636,12.167,4.636,16.816,0l23.011-23.011C936.309,86.105,936.309,78.588,931.673,73.938z"/>
			<path d="M931.673,334.2l-23.011-23.011c-4.649-4.636-12.167-4.636-16.816,0L868.836,334.2c-4.636,4.649-4.636,12.167,0,16.816
				l23.011,23.011c4.649,4.636,12.167,4.636,16.816,0l23.011-23.011C936.309,346.367,936.309,338.849,931.673,334.2z"/>
			<path d="M931.673,594.461l-23.011-23.011c-4.649-4.636-12.167-4.636-16.816,0l-23.011,23.011c-4.636,4.649-4.636,12.167,0,16.816
				l23.011,23.011c4.649,4.636,12.167,4.636,16.816,0l23.011-23.011C936.309,606.628,936.309,599.111,931.673,594.461z"/>
			<path d="M931.673,854.723l-23.011-23.011c-4.649-4.636-12.167-4.636-16.816,0l-23.011,23.011c-4.636,4.649-4.636,12.167,0,16.816
				l23.011,23.011c4.649,4.636,12.167,4.636,16.816,0l23.011-23.011C936.309,866.889,936.309,859.372,931.673,854.723z"/>
			<path d="M931.673,1114.984l-23.011-23.011c-4.649-4.636-12.167-4.636-16.816,0l-23.011,23.011
				c-4.636,4.649-4.636,12.167,0,16.816l23.011,23.011c4.649,4.636,12.167,4.636,16.816,0l23.011-23.011
				C936.309,1127.151,936.309,1119.633,931.673,1114.984z"/>
			<path d="M931.673,1375.246l-23.011-23.011c-4.649-4.636-12.167-4.636-16.816,0l-23.011,23.011
				c-4.636,4.649-4.636,12.167,0,16.816l23.011,23.011c4.649,4.636,12.167,4.636,16.816,0l23.011-23.011
				C936.309,1387.412,936.309,1379.895,931.673,1375.246z"/>
		</g>
		<g>
			<path d="M1131.419,204.069l-23.011-23.011c-4.649-4.636-12.167-4.636-16.816,0l-23.011,23.011
				c-4.636,4.649-4.636,12.167,0,16.816l23.011,23.011c4.649,4.636,12.167,4.636,16.816,0l23.011-23.011
				C1136.055,216.236,1136.055,208.718,1131.419,204.069z"/>
			<path d="M1131.419,464.331l-23.011-23.011c-4.649-4.636-12.167-4.636-16.816,0l-23.011,23.011
				c-4.636,4.649-4.636,12.167,0,16.816l23.011,23.011c4.649,4.636,12.167,4.636,16.816,0l23.011-23.011
				C1136.055,476.497,1136.055,468.98,1131.419,464.331z"/>
			<path d="M1131.419,724.592l-23.011-23.011c-4.649-4.636-12.167-4.636-16.816,0l-23.011,23.011
				c-4.636,4.649-4.636,12.167,0,16.816l23.011,23.011c4.649,4.636,12.167,4.636,16.816,0l23.011-23.011
				C1136.055,736.759,1136.055,729.241,1131.419,724.592z"/>
			<path d="M1131.419,984.853l-23.011-23.011c-4.649-4.636-12.167-4.636-16.816,0l-23.011,23.011
				c-4.636,4.649-4.636,12.167,0,16.816l23.011,23.011c4.649,4.636,12.167,4.636,16.816,0l23.011-23.011
				C1136.055,997.02,1136.055,989.503,1131.419,984.853z"/>
			<path d="M1131.419,1245.115l-23.011-23.011c-4.649-4.636-12.167-4.636-16.816,0l-23.011,23.011
				c-4.636,4.649-4.636,12.167,0,16.816l23.011,23.011c4.649,4.636,12.167,4.636,16.816,0l23.011-23.011
				C1136.055,1257.282,1136.055,1249.764,1131.419,1245.115z"/>
		</g>
		<g>
			<path d="M1331.164,73.938l-23.011-23.011c-4.649-4.636-12.167-4.636-16.816,0l-23.011,23.011c-4.636,4.649-4.636,12.167,0,16.816
				l23.011,23.011c4.649,4.636,12.167,4.636,16.816,0l23.011-23.011C1335.8,86.105,1335.8,78.588,1331.164,73.938z"/>
			<path d="M1331.164,334.2l-23.011-23.011c-4.649-4.636-12.167-4.636-16.816,0l-23.011,23.011c-4.636,4.649-4.636,12.167,0,16.816
				l23.011,23.011c4.649,4.636,12.167,4.636,16.816,0l23.011-23.011C1335.8,346.367,1335.8,338.849,1331.164,334.2z"/>
			<path d="M1331.164,594.461l-23.011-23.011c-4.649-4.636-12.167-4.636-16.816,0l-23.011,23.011
				c-4.636,4.649-4.636,12.167,0,16.816l23.011,23.011c4.649,4.636,12.167,4.636,16.816,0l23.011-23.011
				C1335.8,606.628,1335.8,599.111,1331.164,594.461z"/>
			<path d="M1331.164,854.723l-23.011-23.011c-4.649-4.636-12.167-4.636-16.816,0l-23.011,23.011
				c-4.636,4.649-4.636,12.167,0,16.816l23.011,23.011c4.649,4.636,12.167,4.636,16.816,0l23.011-23.011
				C1335.8,866.889,1335.8,859.372,1331.164,854.723z"/>
			<path d="M1331.164,1114.984l-23.011-23.011c-4.649-4.636-12.167-4.636-16.816,0l-23.011,23.011
				c-4.636,4.649-4.636,12.167,0,16.816l23.011,23.011c4.649,4.636,12.167,4.636,16.816,0l23.011-23.011
				C1335.8,1127.151,1335.8,1119.633,1331.164,1114.984z"/>
			<path d="M1331.164,1375.246l-23.011-23.011c-4.649-4.636-12.167-4.636-16.816,0l-23.011,23.011
				c-4.636,4.649-4.636,12.167,0,16.816l23.011,23.011c4.649,4.636,12.167,4.636,16.816,0l23.011-23.011
				C1335.8,1387.412,1335.8,1379.895,1331.164,1375.246z"/>
		</g>
		<g>
			<path d="M1530.91,204.069l-23.011-23.011c-4.649-4.636-12.167-4.636-16.816,0l-23.011,23.011c-4.636,4.649-4.636,12.167,0,16.816
				l23.011,23.011c4.649,4.636,12.167,4.636,16.816,0l23.011-23.011C1535.546,216.236,1535.546,208.718,1530.91,204.069z"/>
			<path d="M1530.91,464.331l-23.011-23.011c-4.649-4.636-12.167-4.636-16.816,0l-23.011,23.011c-4.636,4.649-4.636,12.167,0,16.816
				l23.011,23.011c4.649,4.636,12.167,4.636,16.816,0l23.011-23.011C1535.546,476.497,1535.546,468.98,1530.91,464.331z"/>
			<path d="M1530.91,724.592l-23.011-23.011c-4.649-4.636-12.167-4.636-16.816,0l-23.011,23.011c-4.636,4.649-4.636,12.167,0,16.816
				l23.011,23.011c4.649,4.636,12.167,4.636,16.816,0l23.011-23.011C1535.546,736.759,1535.546,729.241,1530.91,724.592z"/>
			<path d="M1530.91,984.853l-23.011-23.011c-4.649-4.636-12.167-4.636-16.816,0l-23.011,23.011c-4.636,4.649-4.636,12.167,0,16.816
				l23.011,23.011c4.649,4.636,12.167,4.636,16.816,0l23.011-23.011C1535.546,997.02,1535.546,989.503,1530.91,984.853z"/>
			<path d="M1530.91,1245.115l-23.011-23.011c-4.649-4.636-12.167-4.636-16.816,0l-23.011,23.011
				c-4.636,4.649-4.636,12.167,0,16.816l23.011,23.011c4.649,4.636,12.167,4.636,16.816,0l23.011-23.011
				C1535.546,1257.282,1535.546,1249.764,1530.91,1245.115z"/>
		</g>
		<g>
			<path d="M1730.655,73.938l-23.011-23.011c-4.649-4.636-12.167-4.636-16.816,0l-23.011,23.011c-4.636,4.649-4.636,12.167,0,16.816
				l23.011,23.011c4.649,4.636,12.167,4.636,16.816,0l23.011-23.011C1735.292,86.105,1735.292,78.588,1730.655,73.938z"/>
			<path d="M1730.655,334.2l-23.011-23.011c-4.649-4.636-12.167-4.636-16.816,0l-23.011,23.011c-4.636,4.649-4.636,12.167,0,16.816
				l23.011,23.011c4.649,4.636,12.167,4.636,16.816,0l23.011-23.011C1735.292,346.367,1735.292,338.849,1730.655,334.2z"/>
			<path d="M1730.655,594.461l-23.011-23.011c-4.649-4.636-12.167-4.636-16.816,0l-23.011,23.011
				c-4.636,4.649-4.636,12.167,0,16.816l23.011,23.011c4.649,4.636,12.167,4.636,16.816,0l23.011-23.011
				C1735.292,606.628,1735.292,599.111,1730.655,594.461z"/>
			<path d="M1730.655,854.723l-23.011-23.011c-4.649-4.636-12.167-4.636-16.816,0l-23.011,23.011
				c-4.636,4.649-4.636,12.167,0,16.816l23.011,23.011c4.649,4.636,12.167,4.636,16.816,0l23.011-23.011
				C1735.292,866.889,1735.292,859.372,1730.655,854.723z"/>
			<path d="M1730.655,1114.984l-23.011-23.011c-4.649-4.636-12.167-4.636-16.816,0l-23.011,23.011
				c-4.636,4.649-4.636,12.167,0,16.816l23.011,23.011c4.649,4.636,12.167,4.636,16.816,0l23.011-23.011
				C1735.292,1127.151,1735.292,1119.633,1730.655,1114.984z"/>
			<path d="M1730.655,1375.246l-23.011-23.011c-4.649-4.636-12.167-4.636-16.816,0l-23.011,23.011
				c-4.636,4.649-4.636,12.167,0,16.816l23.011,23.011c4.649,4.636,12.167,4.636,16.816,0l23.011-23.011
				C1735.292,1387.412,1735.292,1379.895,1730.655,1375.246z"/>
		</g>
		<g>
			<path d="M1930.401,204.069l-23.011-23.011c-4.649-4.636-12.167-4.636-16.816,0l-23.011,23.011
				c-4.636,4.649-4.636,12.167,0,16.816l23.011,23.011c4.649,4.636,12.167,4.636,16.816,0l23.011-23.011
				C1935.037,216.236,1935.037,208.718,1930.401,204.069z"/>
			<path d="M1930.401,464.331l-23.011-23.011c-4.649-4.636-12.167-4.636-16.816,0l-23.011,23.011
				c-4.636,4.649-4.636,12.167,0,16.816l23.011,23.011c4.649,4.636,12.167,4.636,16.816,0l23.011-23.011
				C1935.037,476.497,1935.037,468.98,1930.401,464.331z"/>
			<path d="M1930.401,724.592l-23.011-23.011c-4.649-4.636-12.167-4.636-16.816,0l-23.011,23.011
				c-4.636,4.649-4.636,12.167,0,16.816l23.011,23.011c4.649,4.636,12.167,4.636,16.816,0l23.011-23.011
				C1935.037,736.759,1935.037,729.241,1930.401,724.592z"/>
			<path d="M1930.401,984.853l-23.011-23.011c-4.649-4.636-12.167-4.636-16.816,0l-23.011,23.011
				c-4.636,4.649-4.636,12.167,0,16.816l23.011,23.011c4.649,4.636,12.167,4.636,16.816,0l23.011-23.011
				C1935.037,997.02,1935.037,989.503,1930.401,984.853z"/>
			<path d="M1930.401,1245.115l-23.011-23.011c-4.649-4.636-12.167-4.636-16.816,0l-23.011,23.011
				c-4.636,4.649-4.636,12.167,0,16.816l23.011,23.011c4.649,4.636,12.167,4.636,16.816,0l23.011-23.011
				C1935.037,1257.282,1935.037,1249.764,1930.401,1245.115z"/>
		</g>
		<g>
			<path d="M2130.146,73.938l-23.011-23.011c-4.649-4.636-12.167-4.636-16.816,0l-23.011,23.011c-4.636,4.649-4.636,12.167,0,16.816
				l23.011,23.011c4.649,4.636,12.167,4.636,16.816,0l23.011-23.011C2134.782,86.105,2134.782,78.588,2130.146,73.938z"/>
			<path d="M2130.146,334.2l-23.011-23.011c-4.649-4.636-12.167-4.636-16.816,0l-23.011,23.011c-4.636,4.649-4.636,12.167,0,16.816
				l23.011,23.011c4.649,4.636,12.167,4.636,16.816,0l23.011-23.011C2134.782,346.367,2134.782,338.849,2130.146,334.2z"/>
			<path d="M2130.146,594.461l-23.011-23.011c-4.649-4.636-12.167-4.636-16.816,0l-23.011,23.011
				c-4.636,4.649-4.636,12.167,0,16.816l23.011,23.011c4.649,4.636,12.167,4.636,16.816,0l23.011-23.011
				C2134.782,606.628,2134.782,599.111,2130.146,594.461z"/>
			<path d="M2130.146,854.723l-23.011-23.011c-4.649-4.636-12.167-4.636-16.816,0l-23.011,23.011
				c-4.636,4.649-4.636,12.167,0,16.816l23.011,23.011c4.649,4.636,12.167,4.636,16.816,0l23.011-23.011
				C2134.782,866.889,2134.782,859.372,2130.146,854.723z"/>
			<path d="M2130.146,1114.984l-23.011-23.011c-4.649-4.636-12.167-4.636-16.816,0l-23.011,23.011
				c-4.636,4.649-4.636,12.167,0,16.816l23.011,23.011c4.649,4.636,12.167,4.636,16.816,0l23.011-23.011
				C2134.782,1127.151,2134.782,1119.633,2130.146,1114.984z"/>
			<path d="M2130.146,1375.246l-23.011-23.011c-4.649-4.636-12.167-4.636-16.816,0l-23.011,23.011
				c-4.636,4.649-4.636,12.167,0,16.816l23.011,23.011c4.649,4.636,12.167,4.636,16.816,0l23.011-23.011
				C2134.782,1387.412,2134.782,1379.895,2130.146,1375.246z"/>
		</g>
	</g>
</g>
</svg>
